<mxfile host="app.diagrams.net" agent="Mozilla/5.0 (Windows NT 10.0; Win64; x64) AppleWebKit/537.36 (KHTML, like Gecko) Chrome/131.0.0.0 Safari/537.36    " version="24.8.9">
  <diagram name="Page-1" id="TpqTS0kD5rVR6zO60PYo">
    <mxGraphModel dx="2954" dy="1150" grid="1" gridSize="10" guides="1" tooltips="1" connect="1" arrows="1" fold="1" page="1" pageScale="1" pageWidth="850" pageHeight="1100" math="0" shadow="0">
      <root>
        <mxCell id="0" />
        <mxCell id="1" parent="0" />
        <mxCell id="ru9J7mKJZgkxH45_FOU2-1" value="Użytkownik" style="shape=umlActor;verticalLabelPosition=bottom;verticalAlign=top;html=1;" parent="1" vertex="1">
          <mxGeometry x="20" y="505" width="30" height="60" as="geometry" />
        </mxCell>
        <mxCell id="ru9J7mKJZgkxH45_FOU2-16" style="edgeStyle=orthogonalEdgeStyle;rounded=0;orthogonalLoop=1;jettySize=auto;html=1;curved=1;dashed=1;" parent="1" source="ru9J7mKJZgkxH45_FOU2-2" target="ru9J7mKJZgkxH45_FOU2-15" edge="1">
          <mxGeometry relative="1" as="geometry" />
        </mxCell>
        <mxCell id="ru9J7mKJZgkxH45_FOU2-18" value="&amp;lt;&amp;lt;invoke&amp;gt;&amp;gt;" style="edgeLabel;html=1;align=center;verticalAlign=middle;resizable=0;points=[];" parent="ru9J7mKJZgkxH45_FOU2-16" vertex="1" connectable="0">
          <mxGeometry x="-0.08" y="3" relative="1" as="geometry">
            <mxPoint as="offset" />
          </mxGeometry>
        </mxCell>
        <mxCell id="ru9J7mKJZgkxH45_FOU2-2" value="Wyświetlenia formularza rejestracji" style="ellipse;whiteSpace=wrap;html=1;" parent="1" vertex="1">
          <mxGeometry x="90" y="330" width="140" height="70" as="geometry" />
        </mxCell>
        <mxCell id="ru9J7mKJZgkxH45_FOU2-17" style="edgeStyle=orthogonalEdgeStyle;rounded=0;orthogonalLoop=1;jettySize=auto;html=1;curved=1;dashed=1;" parent="1" source="ru9J7mKJZgkxH45_FOU2-6" target="ru9J7mKJZgkxH45_FOU2-14" edge="1">
          <mxGeometry relative="1" as="geometry" />
        </mxCell>
        <mxCell id="ru9J7mKJZgkxH45_FOU2-20" value="&amp;lt;&amp;lt;invoke&amp;gt;&amp;gt;" style="edgeLabel;html=1;align=center;verticalAlign=middle;resizable=0;points=[];" parent="ru9J7mKJZgkxH45_FOU2-17" vertex="1" connectable="0">
          <mxGeometry x="-0.0933" relative="1" as="geometry">
            <mxPoint as="offset" />
          </mxGeometry>
        </mxCell>
        <mxCell id="ru9J7mKJZgkxH45_FOU2-6" value="Wyświetlenie formularza logowania" style="ellipse;whiteSpace=wrap;html=1;" parent="1" vertex="1">
          <mxGeometry x="90" y="660" width="140" height="70" as="geometry" />
        </mxCell>
        <mxCell id="ru9J7mKJZgkxH45_FOU2-10" style="edgeStyle=orthogonalEdgeStyle;rounded=0;orthogonalLoop=1;jettySize=auto;html=1;dashed=1;exitX=0.5;exitY=0.5;exitDx=0;exitDy=0;exitPerimeter=0;" parent="1" source="ru9J7mKJZgkxH45_FOU2-1" target="ru9J7mKJZgkxH45_FOU2-2" edge="1">
          <mxGeometry relative="1" as="geometry">
            <mxPoint x="160" y="500" as="sourcePoint" />
          </mxGeometry>
        </mxCell>
        <mxCell id="ru9J7mKJZgkxH45_FOU2-11" value="&amp;lt;&amp;lt;invoke&amp;gt;&amp;gt;" style="edgeLabel;html=1;align=center;verticalAlign=middle;resizable=0;points=[];" parent="ru9J7mKJZgkxH45_FOU2-10" vertex="1" connectable="0">
          <mxGeometry x="0.0667" y="2" relative="1" as="geometry">
            <mxPoint x="2" y="-51" as="offset" />
          </mxGeometry>
        </mxCell>
        <mxCell id="ru9J7mKJZgkxH45_FOU2-12" style="edgeStyle=orthogonalEdgeStyle;rounded=0;orthogonalLoop=1;jettySize=auto;html=1;dashed=1;exitX=0.5;exitY=0.5;exitDx=0;exitDy=0;exitPerimeter=0;" parent="1" source="ru9J7mKJZgkxH45_FOU2-1" target="ru9J7mKJZgkxH45_FOU2-6" edge="1">
          <mxGeometry relative="1" as="geometry">
            <mxPoint x="160" y="570" as="sourcePoint" />
          </mxGeometry>
        </mxCell>
        <mxCell id="ru9J7mKJZgkxH45_FOU2-13" value="&amp;lt;&amp;lt;invoke&amp;gt;&amp;gt;" style="edgeLabel;html=1;align=center;verticalAlign=middle;resizable=0;points=[];" parent="ru9J7mKJZgkxH45_FOU2-12" vertex="1" connectable="0">
          <mxGeometry x="-0.3" relative="1" as="geometry">
            <mxPoint x="37" y="65" as="offset" />
          </mxGeometry>
        </mxCell>
        <mxCell id="ru9J7mKJZgkxH45_FOU2-23" style="edgeStyle=orthogonalEdgeStyle;rounded=0;orthogonalLoop=1;jettySize=auto;html=1;dashed=1;" parent="1" source="ru9J7mKJZgkxH45_FOU2-14" target="ru9J7mKJZgkxH45_FOU2-21" edge="1">
          <mxGeometry relative="1" as="geometry" />
        </mxCell>
        <mxCell id="ru9J7mKJZgkxH45_FOU2-25" value="&amp;lt;&amp;lt;invoke&amp;gt;&amp;gt;" style="edgeLabel;html=1;align=center;verticalAlign=middle;resizable=0;points=[];" parent="ru9J7mKJZgkxH45_FOU2-23" vertex="1" connectable="0">
          <mxGeometry x="-0.024" relative="1" as="geometry">
            <mxPoint as="offset" />
          </mxGeometry>
        </mxCell>
        <mxCell id="ru9J7mKJZgkxH45_FOU2-14" value="Zalogowanie do aplikacji" style="ellipse;whiteSpace=wrap;html=1;" parent="1" vertex="1">
          <mxGeometry x="336" y="660" width="140" height="70" as="geometry" />
        </mxCell>
        <mxCell id="ru9J7mKJZgkxH45_FOU2-22" style="edgeStyle=orthogonalEdgeStyle;rounded=0;orthogonalLoop=1;jettySize=auto;html=1;dashed=1;" parent="1" source="ru9J7mKJZgkxH45_FOU2-15" target="ru9J7mKJZgkxH45_FOU2-21" edge="1">
          <mxGeometry relative="1" as="geometry" />
        </mxCell>
        <mxCell id="ru9J7mKJZgkxH45_FOU2-24" value="&amp;lt;&amp;lt;invoke&amp;gt;&amp;gt;" style="edgeLabel;html=1;align=center;verticalAlign=middle;resizable=0;points=[];" parent="ru9J7mKJZgkxH45_FOU2-22" vertex="1" connectable="0">
          <mxGeometry x="-0.2522" y="-2" relative="1" as="geometry">
            <mxPoint as="offset" />
          </mxGeometry>
        </mxCell>
        <mxCell id="ru9J7mKJZgkxH45_FOU2-15" value="Rejestracja konta" style="ellipse;whiteSpace=wrap;html=1;" parent="1" vertex="1">
          <mxGeometry x="336" y="330" width="140" height="70" as="geometry" />
        </mxCell>
        <mxCell id="ru9J7mKJZgkxH45_FOU2-21" value="Wyświetlenie widoku aktualności" style="ellipse;whiteSpace=wrap;html=1;" parent="1" vertex="1">
          <mxGeometry x="336" y="500" width="140" height="70" as="geometry" />
        </mxCell>
      </root>
    </mxGraphModel>
  </diagram>
</mxfile>
